<?xml version="1.0" standalone="no"?>
<!DOCTYPE svg PUBLIC "-//W3C//DTD SVG 20010904//EN"
 "http://www.w3.org/TR/2001/REC-SVG-20010904/DTD/svg10.dtd">
<svg version="1.0" xmlns="http://www.w3.org/2000/svg"
 width="650.000000pt" height="650.000000pt" viewBox="0 0 650.000000 650.000000"
 preserveAspectRatio="xMidYMid meet">
<metadata>
Created by potrace 1.11, written by Peter Selinger 2001-2013
</metadata>
<g transform="translate(0.000000,650.000000) scale(0.100000,-0.100000)"
fill="#000000" stroke="none">
<path d="M605 4456 c-55 -24 -63 -47 -64 -198 -2 -113 1 -138 14 -152 9 -9 22
-16 28 -17 7 0 23 -2 37 -3 13 -2 40 1 60 5 19 4 58 10 85 13 28 3 118 19 200
36 83 17 160 32 173 35 21 3 22 1 22 -63 1 -37 2 -573 3 -1192 l2 -1126 26
-49 c21 -41 35 -55 84 -80 l59 -30 555 0 c437 0 566 3 601 13 58 18 114 75
131 132 9 35 12 309 13 1222 1 1176 1 1178 21 1174 11 -3 88 -18 171 -35 82
-16 163 -32 180 -35 154 -25 213 -25 235 2 12 16 15 45 14 153 -2 150 -11 179
-67 198 -50 18 -2543 14 -2583 -3z"/>
<path d="M3663 4460 c-58 -12 -118 -45 -141 -77 -45 -63 -45 -55 -45 -1328 0
-1341 -3 -1289 63 -1355 69 -69 66 -69 765 -66 341 2 638 6 660 10 126 21 163
29 233 53 370 123 591 416 687 913 2 13 9 60 21 150 19 133 24 469 10 625 -37
423 -197 745 -451 906 -134 85 -264 131 -470 165 -61 10 -1284 14 -1332 4z
m1426 -283 c87 -23 133 -40 184 -71 72 -44 106 -75 164 -151 113 -150 175
-341 200 -620 14 -148 5 -565 -12 -595 -2 -3 -6 -30 -10 -60 -8 -71 -49 -227
-80 -310 -107 -279 -303 -447 -540 -462 l-40 -3 -1 1143 -2 1144 57 -5 c31 -2
67 -7 80 -10z"/>
</g>
</svg>
